<svg xmlns="http://www.w3.org/2000/svg" xmlns:xlink="http://www.w3.org/1999/xlink" width="1000" zoomAndPan="magnify" viewBox="0 0 750 749.999995" height="1000" preserveAspectRatio="xMidYMid meet" version="1.0"><path fill="#000000" d="M 375 291.882812 C 329.222656 291.882812 291.882812 329.222656 291.882812 375 C 291.882812 420.777344 329.222656 458.117188 375 458.117188 C 420.777344 458.117188 458.117188 420.777344 458.117188 375 C 458.117188 329.222656 420.777344 291.882812 375 291.882812 Z M 375 291.882812 " fill-opacity="1" fill-rule="nonzero"/><path fill="#000000" d="M 486.6875 171.105469 L 263.3125 171.105469 C 212.664062 171.105469 171.105469 212.335938 171.105469 263.3125 L 171.105469 486.6875 C 171.105469 537.335938 212.335938 578.894531 263.3125 578.894531 L 486.6875 578.894531 C 537.335938 578.894531 578.894531 537.664062 578.894531 486.6875 L 578.894531 263.3125 C 578.570312 212.335938 537.335938 171.105469 486.6875 171.105469 Z M 375 500 C 305.84375 500 249.675781 443.832031 249.675781 374.675781 C 249.675781 305.519531 305.84375 249.351562 375 249.351562 C 444.15625 249.351562 500.324219 305.519531 500.324219 374.675781 C 500 443.832031 443.832031 500 375 500 Z M 509.089844 270.453125 C 492.53125 270.453125 478.894531 256.816406 478.894531 240.257812 C 478.894531 223.703125 492.53125 210.066406 509.089844 210.066406 C 525.648438 210.066406 539.285156 223.703125 539.285156 240.257812 C 539.285156 257.144531 525.972656 270.453125 509.089844 270.453125 Z M 509.089844 270.453125 " fill-opacity="1" fill-rule="nonzero"/><path fill="#000000" d="M 375 0 C 167.855469 0 0 167.855469 0 375 C 0 582.144531 167.855469 750 375 750 C 582.144531 750 750 582.144531 750 375 C 749.675781 167.855469 581.816406 0 375 0 Z M 620.777344 486.6875 C 620.777344 560.714844 560.390625 621.105469 486.363281 621.105469 L 263.3125 621.105469 C 189.285156 621.105469 128.894531 560.714844 128.894531 486.6875 L 128.894531 263.3125 C 128.894531 189.285156 189.285156 128.894531 263.3125 128.894531 L 486.6875 128.894531 C 560.714844 128.894531 621.105469 189.285156 621.105469 263.3125 L 621.105469 486.6875 Z M 620.777344 486.6875 " fill-opacity="1" fill-rule="nonzero"/></svg>