<svg xmlns="http://www.w3.org/2000/svg" xmlns:xlink="http://www.w3.org/1999/xlink" width="1000" zoomAndPan="magnify" viewBox="0 0 750 749.999995" height="1000" preserveAspectRatio="xMidYMid meet" version="1.0"><path fill="#000000" d="M 375 0 C 167.90625 0 0 167.90625 0 375 C 0 582.09375 167.90625 750 375 750 C 582.09375 750 750 582.09375 750 375 C 750 167.90625 582.09375 0 375 0 Z M 234.25 168.84375 C 260.5625 168.84375 278.09375 186.375 278.09375 209.75 C 278.09375 233.125 260.5625 250.65625 231.34375 250.65625 C 205.03125 250.6875 187.5 233.125 187.5 209.75 C 187.5 186.375 205.03125 168.84375 234.25 168.84375 Z M 281.25 531.25 L 187.5 531.25 L 187.5 281.25 L 281.25 281.25 Z M 593.75 531.25 L 505.5 531.25 L 505.5 394.625 C 505.5 356.84375 481.96875 348.125 473.15625 348.125 C 464.34375 348.125 434.90625 353.9375 434.90625 394.625 C 434.90625 400.4375 434.90625 531.25 434.90625 531.25 L 343.75 531.25 L 343.75 281.25 L 434.9375 281.25 L 434.9375 316.125 C 446.6875 295.78125 470.21875 281.25 514.34375 281.25 C 558.46875 281.25 593.75 316.125 593.75 394.625 Z M 593.75 531.25 " fill-opacity="1" fill-rule="nonzero"/></svg>