<svg xmlns="http://www.w3.org/2000/svg" xmlns:xlink="http://www.w3.org/1999/xlink" width="1000" zoomAndPan="magnify" viewBox="0 0 750 749.999995" height="1000" preserveAspectRatio="xMidYMid meet" version="1.0"><path fill="#0077b5" d="M 112.5 0 L 637.5 0 C 639.339844 0 641.179688 0.046875 643.019531 0.136719 C 644.859375 0.226562 646.695312 0.359375 648.527344 0.542969 C 650.359375 0.722656 652.1875 0.949219 654.007812 1.21875 C 655.828125 1.488281 657.640625 1.800781 659.449219 2.160156 C 661.253906 2.519531 663.050781 2.925781 664.835938 3.371094 C 666.621094 3.820312 668.394531 4.308594 670.15625 4.84375 C 671.917969 5.378906 673.667969 5.957031 675.398438 6.578125 C 677.132812 7.195312 678.851562 7.859375 680.550781 8.5625 C 682.253906 9.269531 683.933594 10.015625 685.601562 10.800781 C 687.265625 11.589844 688.910156 12.414062 690.53125 13.285156 C 692.15625 14.152344 693.757812 15.058594 695.335938 16.003906 C 696.914062 16.953125 698.46875 17.9375 700 18.960938 C 701.53125 19.984375 703.039062 21.042969 704.515625 22.140625 C 705.996094 23.234375 707.445312 24.367188 708.871094 25.535156 C 710.292969 26.703125 711.6875 27.90625 713.050781 29.144531 C 714.414062 30.378906 715.746094 31.648438 717.050781 32.949219 C 718.351562 34.253906 719.621094 35.585938 720.855469 36.949219 C 722.09375 38.3125 723.296875 39.707031 724.464844 41.128906 C 725.632812 42.554688 726.765625 44.003906 727.859375 45.484375 C 728.957031 46.960938 730.015625 48.46875 731.039062 50 C 732.0625 51.527344 733.046875 53.085938 733.996094 54.664062 C 734.941406 56.242188 735.847656 57.84375 736.714844 59.46875 C 737.582031 61.089844 738.410156 62.734375 739.199219 64.398438 C 739.984375 66.0625 740.730469 67.746094 741.4375 69.449219 C 742.140625 71.148438 742.804688 72.867188 743.421875 74.601562 C 744.042969 76.332031 744.621094 78.082031 745.15625 79.84375 C 745.691406 81.605469 746.179688 83.378906 746.628906 85.164062 C 747.074219 86.949219 747.480469 88.746094 747.839844 90.550781 C 748.199219 92.359375 748.511719 94.171875 748.78125 95.992188 C 749.050781 97.8125 749.277344 99.640625 749.457031 101.472656 C 749.640625 103.304688 749.773438 105.140625 749.863281 106.980469 C 749.953125 108.820312 750 110.660156 750 112.5 L 750 637.5 C 750 639.339844 749.953125 641.179688 749.863281 643.019531 C 749.773438 644.859375 749.640625 646.695312 749.457031 648.527344 C 749.277344 650.359375 749.050781 652.1875 748.78125 654.007812 C 748.511719 655.828125 748.199219 657.640625 747.839844 659.449219 C 747.480469 661.253906 747.074219 663.050781 746.628906 664.835938 C 746.179688 666.621094 745.691406 668.394531 745.15625 670.15625 C 744.621094 671.917969 744.042969 673.667969 743.421875 675.398438 C 742.804688 677.132812 742.140625 678.851562 741.4375 680.550781 C 740.730469 682.253906 739.984375 683.933594 739.199219 685.601562 C 738.410156 687.265625 737.582031 688.910156 736.714844 690.53125 C 735.847656 692.15625 734.941406 693.757812 733.996094 695.335938 C 733.046875 696.914062 732.0625 698.46875 731.039062 700 C 730.015625 701.53125 728.957031 703.039062 727.859375 704.515625 C 726.765625 705.996094 725.632812 707.445312 724.464844 708.871094 C 723.296875 710.292969 722.09375 711.6875 720.855469 713.050781 C 719.621094 714.414062 718.351562 715.746094 717.050781 717.050781 C 715.746094 718.351562 714.414062 719.621094 713.050781 720.855469 C 711.6875 722.09375 710.292969 723.296875 708.871094 724.464844 C 707.445312 725.632812 705.996094 726.765625 704.515625 727.859375 C 703.039062 728.957031 701.53125 730.015625 700 731.039062 C 698.46875 732.0625 696.914062 733.046875 695.335938 733.996094 C 693.757812 734.941406 692.15625 735.847656 690.53125 736.714844 C 688.910156 737.582031 687.265625 738.410156 685.601562 739.199219 C 683.933594 739.984375 682.253906 740.730469 680.550781 741.4375 C 678.851562 742.140625 677.132812 742.804688 675.398438 743.421875 C 673.667969 744.042969 671.917969 744.621094 670.15625 745.15625 C 668.394531 745.691406 666.621094 746.179688 664.835938 746.628906 C 663.050781 747.074219 661.253906 747.480469 659.449219 747.839844 C 657.640625 748.199219 655.828125 748.511719 654.007812 748.78125 C 652.1875 749.050781 650.359375 749.277344 648.527344 749.457031 C 646.695312 749.640625 644.859375 749.773438 643.019531 749.863281 C 641.179688 749.953125 639.339844 750 637.5 750 L 112.5 750 C 110.660156 750 108.820312 749.953125 106.980469 749.863281 C 105.140625 749.773438 103.304688 749.640625 101.472656 749.457031 C 99.640625 749.277344 97.8125 749.050781 95.992188 748.78125 C 94.171875 748.511719 92.359375 748.199219 90.550781 747.839844 C 88.746094 747.480469 86.949219 747.074219 85.164062 746.628906 C 83.378906 746.179688 81.605469 745.691406 79.84375 745.15625 C 78.082031 744.621094 76.332031 744.042969 74.601562 743.421875 C 72.867188 742.804688 71.148438 742.140625 69.449219 741.4375 C 67.746094 740.730469 66.0625 739.984375 64.398438 739.199219 C 62.734375 738.410156 61.089844 737.582031 59.46875 736.714844 C 57.84375 735.847656 56.242188 734.941406 54.664062 733.996094 C 53.085938 733.046875 51.527344 732.0625 50 731.039062 C 48.46875 730.015625 46.960938 728.957031 45.484375 727.859375 C 44.003906 726.765625 42.554688 725.632812 41.128906 724.464844 C 39.707031 723.296875 38.3125 722.09375 36.949219 720.855469 C 35.585938 719.621094 34.253906 718.351562 32.949219 717.050781 C 31.648438 715.746094 30.378906 714.414062 29.144531 713.050781 C 27.90625 711.6875 26.703125 710.292969 25.535156 708.871094 C 24.367188 707.445312 23.234375 705.996094 22.140625 704.515625 C 21.042969 703.039062 19.984375 701.53125 18.960938 700 C 17.9375 698.46875 16.953125 696.914062 16.003906 695.335938 C 15.058594 693.757812 14.152344 692.15625 13.285156 690.53125 C 12.414062 688.910156 11.589844 687.265625 10.800781 685.601562 C 10.015625 683.933594 9.269531 682.253906 8.5625 680.550781 C 7.859375 678.851562 7.195312 677.132812 6.578125 675.398438 C 5.957031 673.667969 5.378906 671.917969 4.84375 670.15625 C 4.308594 668.394531 3.820312 666.621094 3.371094 664.835938 C 2.925781 663.050781 2.519531 661.253906 2.160156 659.449219 C 1.800781 657.640625 1.488281 655.828125 1.21875 654.007812 C 0.949219 652.1875 0.722656 650.359375 0.542969 648.527344 C 0.359375 646.695312 0.226562 644.859375 0.136719 643.019531 C 0.046875 641.179688 0 639.339844 0 637.5 L 0 112.5 C 0 110.660156 0.046875 108.820312 0.136719 106.980469 C 0.226562 105.140625 0.359375 103.304688 0.542969 101.472656 C 0.722656 99.640625 0.949219 97.8125 1.21875 95.992188 C 1.488281 94.171875 1.800781 92.359375 2.160156 90.550781 C 2.519531 88.746094 2.925781 86.949219 3.371094 85.164062 C 3.820312 83.378906 4.308594 81.605469 4.84375 79.84375 C 5.378906 78.082031 5.957031 76.332031 6.578125 74.601562 C 7.195312 72.867188 7.859375 71.148438 8.5625 69.449219 C 9.269531 67.746094 10.015625 66.0625 10.800781 64.398438 C 11.589844 62.734375 12.414062 61.089844 13.285156 59.46875 C 14.152344 57.84375 15.058594 56.242188 16.003906 54.664062 C 16.953125 53.085938 17.9375 51.527344 18.960938 50 C 19.984375 48.46875 21.042969 46.960938 22.140625 45.484375 C 23.234375 44.003906 24.367188 42.554688 25.535156 41.128906 C 26.703125 39.707031 27.90625 38.3125 29.144531 36.949219 C 30.378906 35.585938 31.648438 34.253906 32.949219 32.949219 C 34.253906 31.648438 35.585938 30.378906 36.949219 29.144531 C 38.3125 27.90625 39.707031 26.703125 41.128906 25.535156 C 42.554688 24.367188 44.003906 23.234375 45.484375 22.140625 C 46.960938 21.042969 48.46875 19.984375 50 18.960938 C 51.527344 17.9375 53.085938 16.953125 54.664062 16.003906 C 56.242188 15.058594 57.84375 14.152344 59.46875 13.285156 C 61.089844 12.414062 62.734375 11.589844 64.398438 10.800781 C 66.0625 10.015625 67.746094 9.269531 69.449219 8.5625 C 71.148438 7.859375 72.867188 7.195312 74.601562 6.578125 C 76.332031 5.957031 78.082031 5.378906 79.84375 4.84375 C 81.605469 4.308594 83.378906 3.820312 85.164062 3.371094 C 86.949219 2.925781 88.746094 2.519531 90.550781 2.160156 C 92.359375 1.800781 94.171875 1.488281 95.992188 1.21875 C 97.8125 0.949219 99.640625 0.722656 101.472656 0.542969 C 103.304688 0.359375 105.140625 0.226562 106.980469 0.136719 C 108.820312 0.046875 110.660156 0 112.5 0 Z M 112.5 0 " fill-opacity="1" fill-rule="nonzero"/><path fill="#ffffff" d="M 262.207031 202.148438 C 262.207031 203.921875 262.121094 205.695312 261.945312 207.460938 C 261.773438 209.226562 261.511719 210.980469 261.164062 212.722656 C 260.820312 214.464844 260.386719 216.183594 259.875 217.882812 C 259.359375 219.582031 258.761719 221.25 258.082031 222.890625 C 257.402344 224.53125 256.644531 226.132812 255.808594 227.699219 C 254.96875 229.261719 254.058594 230.785156 253.074219 232.261719 C 252.085938 233.734375 251.03125 235.160156 249.90625 236.53125 C 248.777344 237.902344 247.585938 239.21875 246.332031 240.472656 C 245.078125 241.726562 243.761719 242.917969 242.390625 244.046875 C 241.019531 245.171875 239.59375 246.226562 238.121094 247.214844 C 236.644531 248.199219 235.121094 249.109375 233.558594 249.949219 C 231.992188 250.785156 230.390625 251.542969 228.75 252.222656 C 227.109375 252.902344 225.441406 253.5 223.742188 254.015625 C 222.042969 254.527344 220.324219 254.960938 218.582031 255.304688 C 216.839844 255.652344 215.085938 255.914062 213.320312 256.085938 C 211.554688 256.261719 209.78125 256.347656 208.007812 256.347656 C 206.234375 256.347656 204.460938 256.261719 202.695312 256.085938 C 200.929688 255.914062 199.175781 255.652344 197.433594 255.304688 C 195.691406 254.960938 193.972656 254.527344 192.273438 254.015625 C 190.574219 253.5 188.90625 252.902344 187.265625 252.222656 C 185.625 251.542969 184.023438 250.785156 182.457031 249.949219 C 180.894531 249.109375 179.371094 248.199219 177.894531 247.214844 C 176.421875 246.226562 174.996094 245.171875 173.625 244.046875 C 172.253906 242.917969 170.9375 241.726562 169.683594 240.472656 C 168.429688 239.21875 167.238281 237.902344 166.109375 236.53125 C 164.984375 235.160156 163.929688 233.734375 162.941406 232.261719 C 161.957031 230.785156 161.046875 229.261719 160.207031 227.699219 C 159.371094 226.132812 158.613281 224.53125 157.933594 222.890625 C 157.253906 221.25 156.65625 219.582031 156.140625 217.882812 C 155.628906 216.183594 155.195312 214.464844 154.851562 212.722656 C 154.503906 210.980469 154.242188 209.226562 154.070312 207.460938 C 153.894531 205.695312 153.808594 203.921875 153.808594 202.148438 C 153.808594 200.375 153.894531 198.601562 154.070312 196.835938 C 154.242188 195.070312 154.503906 193.316406 154.851562 191.574219 C 155.195312 189.832031 155.628906 188.113281 156.140625 186.414062 C 156.65625 184.714844 157.253906 183.046875 157.933594 181.40625 C 158.613281 179.765625 159.371094 178.164062 160.207031 176.597656 C 161.046875 175.035156 161.957031 173.511719 162.941406 172.035156 C 163.929688 170.5625 164.984375 169.136719 166.109375 167.765625 C 167.238281 166.394531 168.429688 165.078125 169.683594 163.824219 C 170.9375 162.570312 172.253906 161.378906 173.625 160.25 C 174.996094 159.125 176.421875 158.070312 177.894531 157.082031 C 179.371094 156.097656 180.894531 155.1875 182.457031 154.347656 C 184.023438 153.511719 185.625 152.753906 187.265625 152.074219 C 188.90625 151.394531 190.574219 150.796875 192.273438 150.28125 C 193.972656 149.769531 195.691406 149.335938 197.433594 148.992188 C 199.175781 148.644531 200.929688 148.382812 202.695312 148.210938 C 204.460938 148.035156 206.234375 147.949219 208.007812 147.949219 C 209.78125 147.949219 211.554688 148.035156 213.320312 148.210938 C 215.085938 148.382812 216.839844 148.644531 218.582031 148.992188 C 220.324219 149.335938 222.042969 149.769531 223.742188 150.28125 C 225.441406 150.796875 227.109375 151.394531 228.75 152.074219 C 230.390625 152.753906 231.992188 153.511719 233.558594 154.347656 C 235.121094 155.1875 236.644531 156.097656 238.121094 157.082031 C 239.59375 158.070312 241.019531 159.125 242.390625 160.25 C 243.761719 161.378906 245.078125 162.570312 246.332031 163.824219 C 247.585938 165.078125 248.777344 166.394531 249.90625 167.765625 C 251.03125 169.136719 252.085938 170.5625 253.074219 172.035156 C 254.058594 173.511719 254.96875 175.035156 255.808594 176.597656 C 256.644531 178.164062 257.402344 179.765625 258.082031 181.40625 C 258.761719 183.046875 259.359375 184.714844 259.875 186.414062 C 260.386719 188.113281 260.820312 189.832031 261.164062 191.574219 C 261.511719 193.316406 261.773438 195.070312 261.945312 196.835938 C 262.121094 198.601562 262.207031 200.375 262.207031 202.148438 Z M 262.207031 202.148438 " fill-opacity="1" fill-rule="nonzero"/><path stroke-linecap="butt" transform="matrix(1.464844, 0, 0, 1.464844, 0.00000265, 0.00002)" fill-opacity="1" fill="#ffffff" fill-rule="nonzero" stroke-linejoin="miter" d="M 244.000011 193.999997 L 244.000011 392.000007 M 142.000006 193.999997 L 142.000006 392.000007 " stroke="#ffffff" stroke-width="66" stroke-opacity="1" stroke-miterlimit="4"/><path fill="#ffffff" d="M 404.296875 413.085938 C 404.296875 383.789062 423.339844 354.492188 457.03125 354.492188 C 492.1875 354.492188 505.371094 380.859375 505.371094 420.410156 L 505.371094 574.21875 L 602.050781 574.21875 L 602.050781 408.691406 C 602.050781 319.335938 555.175781 278.320312 490.722656 278.320312 C 440.917969 278.320312 416.015625 306.152344 404.296875 325.195312 " fill-opacity="1" fill-rule="nonzero"/></svg>