<svg xmlns="http://www.w3.org/2000/svg" xmlns:xlink="http://www.w3.org/1999/xlink" width="1000" zoomAndPan="magnify" viewBox="0 0 750 749.999995" height="1000" preserveAspectRatio="xMidYMid meet" version="1.0"><defs><filter x="0%" y="0%" width="100%" height="100%" id="id1"><feColorMatrix values="0 0 0 0 1 0 0 0 0 1 0 0 0 0 1 0 0 0 1 0" color-interpolation-filters="sRGB"/></filter><mask id="id2"><g filter="url(#id1)"><rect x="-75" width="900" fill="#000000" y="-74.999999" height="899.999994" fill-opacity="0.1569"/></g></mask><clipPath id="id3"><rect x="0" width="750" y="0" height="750"/></clipPath><mask id="id4"><g filter="url(#id1)"><rect x="-75" width="900" fill="#000000" y="-74.999999" height="899.999994" fill-opacity="0.2"/></g></mask><clipPath id="id5"><path d="M 0.558594 0.558594 L 669.558594 0.558594 L 669.558594 669.558594 L 0.558594 669.558594 Z M 0.558594 0.558594 " clip-rule="nonzero"/></clipPath><clipPath id="id6"><rect x="0" width="670" y="0" height="670"/></clipPath><mask id="id7"><g filter="url(#id1)"><rect x="-75" width="900" fill="#000000" y="-74.999999" height="899.999994" fill-opacity="0.2"/></g></mask><clipPath id="id8"><path d="M 0.882812 0.882812 L 587.382812 0.882812 L 587.382812 587.382812 L 0.882812 587.382812 Z M 0.882812 0.882812 " clip-rule="nonzero"/></clipPath><clipPath id="id9"><rect x="0" width="588" y="0" height="588"/></clipPath><mask id="id10"><g filter="url(#id1)"><rect x="-75" width="900" fill="#000000" y="-74.999999" height="899.999994" fill-opacity="0.2"/></g></mask><clipPath id="id11"><path d="M 0.4375 0.4375 L 503.6875 0.4375 L 503.6875 503.6875 L 0.4375 503.6875 Z M 0.4375 0.4375 " clip-rule="nonzero"/></clipPath><clipPath id="id12"><rect x="0" width="504" y="0" height="504"/></clipPath><mask id="id13"><g filter="url(#id1)"><rect x="-75" width="900" fill="#000000" y="-74.999999" height="899.999994" fill-opacity="0.4196"/></g></mask><clipPath id="id14"><path d="M 0.667969 0.667969 L 425.167969 0.667969 L 425.167969 425.167969 L 0.667969 425.167969 Z M 0.667969 0.667969 " clip-rule="nonzero"/></clipPath><clipPath id="id15"><rect x="0" width="426" y="0" height="426"/></clipPath></defs><g mask="url(#id2)"><g transform="matrix(1, 0, 0, 1, 0, -0.000000000000042435)"><g clip-path="url(#id3)"><path fill="#ffffff" d="M 375 0 C 167.894531 0 0 167.894531 0 375 C 0 582.105469 167.894531 750 375 750 C 582.105469 750 750 582.105469 750 375 C 750 167.894531 582.105469 0 375 0 " fill-opacity="1" fill-rule="nonzero"/></g></g></g><g mask="url(#id4)"><g transform="matrix(1, 0, 0, 1, 40, 40)"><g clip-path="url(#id6)"><g clip-path="url(#id5)"><path fill="#ffffff" d="M 335.058594 0.558594 C 150.320312 0.558594 0.558594 150.320312 0.558594 335.058594 C 0.558594 519.796875 150.320312 669.558594 335.058594 669.558594 C 519.796875 669.558594 669.558594 519.796875 669.558594 335.058594 C 669.558594 150.320312 519.796875 0.558594 335.058594 0.558594 " fill-opacity="1" fill-rule="nonzero"/></g></g></g></g><g mask="url(#id7)"><g transform="matrix(1, 0, 0, 1, 81, 81)"><g clip-path="url(#id9)"><g clip-path="url(#id8)"><path fill="#ffffff" d="M 294.132812 0.882812 C 132.175781 0.882812 0.882812 132.175781 0.882812 294.132812 C 0.882812 456.089844 132.175781 587.382812 294.132812 587.382812 C 456.089844 587.382812 587.382812 456.089844 587.382812 294.132812 C 587.382812 132.175781 456.089844 0.882812 294.132812 0.882812 " fill-opacity="1" fill-rule="nonzero"/></g></g></g></g><g mask="url(#id10)"><g transform="matrix(1, 0, 0, 1, 123, 123)"><g clip-path="url(#id12)"><g clip-path="url(#id11)"><path fill="#ffffff" d="M 252.0625 0.4375 C 113.09375 0.4375 0.4375 113.09375 0.4375 252.0625 C 0.4375 391.03125 113.09375 503.6875 252.0625 503.6875 C 391.03125 503.6875 503.6875 391.03125 503.6875 252.0625 C 503.6875 113.09375 391.03125 0.4375 252.0625 0.4375 " fill-opacity="1" fill-rule="nonzero"/></g></g></g></g><g mask="url(#id13)"><g transform="matrix(1, 0, 0, 1, 162, 162)"><g clip-path="url(#id15)"><g clip-path="url(#id14)"><path fill="#ffffff" d="M 212.917969 0.667969 C 95.695312 0.667969 0.667969 95.695312 0.667969 212.917969 C 0.667969 330.136719 95.695312 425.167969 212.917969 425.167969 C 330.136719 425.167969 425.167969 330.136719 425.167969 212.917969 C 425.167969 95.695312 330.136719 0.667969 212.917969 0.667969 " fill-opacity="1" fill-rule="nonzero"/></g></g></g></g></svg>